<svg xmlns="http://www.w3.org/2000/svg" viewBox="0 0 900 380" role="img" aria-label="Black VANTA sunglasses">
  <defs>
    <linearGradient id="frame" x1="0" y1="0" x2="1" y2="1">
      <stop offset="0" stop-color="#34363d"/>
      <stop offset=".28" stop-color="#08090d"/>
      <stop offset=".7" stop-color="#17191f"/>
      <stop offset="1" stop-color="#010204"/>
    </linearGradient>
    <linearGradient id="lens" x1="0" y1="0" x2="1" y2="1">
      <stop offset="0" stop-color="#2e3442" stop-opacity=".96"/>
      <stop offset=".4" stop-color="#0a0d14" stop-opacity=".98"/>
      <stop offset="1" stop-color="#020307" stop-opacity="1"/>
    </linearGradient>
    <linearGradient id="shine" x1="0" y1="0" x2="1" y2="1">
      <stop offset="0" stop-color="#fff" stop-opacity=".34"/>
      <stop offset=".18" stop-color="#fff" stop-opacity=".06"/>
      <stop offset=".55" stop-color="#fff" stop-opacity="0"/>
    </linearGradient>
    <filter id="shadow" x="-30%" y="-50%" width="160%" height="220%">
      <feDropShadow dx="0" dy="28" stdDeviation="18" flood-color="#000" flood-opacity=".42"/>
    </filter>
  </defs>

  <g filter="url(#shadow)">
    <path d="M115 112 C156 78 310 76 376 104 C394 112 407 130 410 149 L421 149 C424 130 438 113 456 104 C522 75 677 78 718 113 C739 131 744 165 738 212 C731 269 700 292 635 299 C565 306 500 298 470 266 C453 249 445 224 442 194 C438 183 431 177 421 177 C410 177 402 183 398 194 C395 224 387 249 370 266 C340 298 275 306 205 299 C140 292 109 269 102 212 C96 165 99 131 115 112 Z" fill="url(#frame)"/>

    <path d="M125 127 C164 101 297 100 358 120 C375 126 383 140 383 160 C383 206 374 240 352 257 C326 278 272 284 214 277 C159 270 132 250 125 207 C119 170 117 143 125 127 Z" fill="url(#lens)" stroke="#5a5e67" stroke-width="3"/>
    <path d="M469 120 C530 100 663 101 702 127 C710 143 708 170 702 207 C695 250 668 270 613 277 C555 284 501 278 475 257 C453 240 444 206 444 160 C444 140 452 126 469 120 Z" fill="url(#lens)" stroke="#5a5e67" stroke-width="3"/>

    <path d="M383 150 C395 142 406 138 421 138 C436 138 447 142 459 150" fill="none" stroke="#1f2229" stroke-width="18" stroke-linecap="round"/>
    <path d="M385 151 C397 146 408 144 421 144 C434 144 445 146 457 151" fill="none" stroke="#7a7e88" stroke-width="2.4" stroke-linecap="round" opacity=".72"/>

    <path d="M105 126 C67 115 43 117 25 128 C17 133 16 149 24 158 C40 176 70 188 109 192" fill="url(#frame)"/>
    <path d="M737 126 C775 115 817 117 858 141 C878 153 885 171 877 184 C866 201 840 199 812 181 L735 192" fill="url(#frame)"/>

    <path d="M867 150 C889 163 899 179 896 195 C893 211 884 220 871 221" fill="none" stroke="#1b1d22" stroke-width="17" stroke-linecap="round"/>

    <path d="M126 128 C184 104 298 105 356 123" fill="none" stroke="#fff" stroke-width="4" stroke-linecap="round" opacity=".16"/>
    <path d="M471 123 C529 105 643 104 701 128" fill="none" stroke="#fff" stroke-width="4" stroke-linecap="round" opacity=".14"/>

    <path d="M151 139 C179 119 272 116 320 127 C284 139 245 170 202 224 C173 211 158 184 151 139 Z" fill="url(#shine)" opacity=".8"/>
    <path d="M495 133 C529 116 621 117 670 134 C633 143 586 177 537 235 C512 214 499 180 495 133 Z" fill="url(#shine)" opacity=".56"/>

    <text x="767" y="151" fill="#d9dce4" font-family="Arial,Helvetica,sans-serif" font-size="22" font-weight="700" letter-spacing="5">VANTA</text>
    <circle cx="119" cy="163" r="4" fill="#bfc3cd" opacity=".82"/>
    <circle cx="723" cy="163" r="4" fill="#bfc3cd" opacity=".82"/>
  </g>
</svg>